# xmcd
#
# Track frame offsets: 
#        150
#        16559
#        38137
#        54460
#        73617
#        90791
#        112904
#        131567
#        145012
#        164700
#        177774
#        193944
#
# Disc length: 2875 seconds
#
# Revision: 0
# Processed by: cddbd v1.5.2PL0 Copyright (c) Steve Scherf et al.
# Submitted via: ExactAudioCopy v0.99pb4
#
DISCID=960b390c
DTITLE=Jimmy Barnes - Out in the blue
DYEAR=2008
DGENRE=Rock
TTITLE0=I can't tell you why
TTITLE1=Out in the blue
TTITLE2=You from me
TTITLE3=Blue hotel
TTITLE4=When two hearts collide
TTITLE5=Red light
TTITLE6=Everything is changing
TTITLE7=Better off alone
TTITLE8=Water wash all over me
TTITLE9=I'm surprised
TTITLE10=Losing you
TTITLE11=Forgiveness
EXTD=
EXTT0=
EXTT1=
EXTT2=
EXTT3=
EXTT4=
EXTT5=
EXTT6=
EXTT7=
EXTT8=
EXTT9=
EXTT10=
EXTT11=
PLAYORDER=
